<?xml version="1.0" encoding="utf-8"?>
<!-- Generator: Adobe Illustrator 25.0.0, SVG Export Plug-In . SVG Version: 6.00 Build 0)  -->
<svg version="1.1" id="a" xmlns="http://www.w3.org/2000/svg" xmlns:xlink="http://www.w3.org/1999/xlink" x="0px" y="0px"
	 viewBox="0 0 841.9 595.3" style="enable-background:new 0 0 841.9 595.3;" xml:space="preserve">
<style type="text/css">
	.st0{fill:#FFFFFF;}
</style>
<g>
	<path class="st0" d="M632.5,297.6c0-116.6-94.9-211.5-211.5-211.5S209.4,181,209.4,297.6s94.9,211.5,211.5,211.5
		S632.5,414.3,632.5,297.6 M598.1,297.6c0,97.7-79.5,177.1-177.1,177.1s-177.1-79.5-177.1-177.1s79.5-177.1,177.1-177.1
		S598.1,200,598.1,297.6"/>
	<path class="st0" d="M546.6,262.6l-69.8-68.8c-1.4-1.4-4.4-1.4-5.8,0l-50.1,49.4l-50-49.4c-1.5-1.5-4.3-1.4-5.8,0l-69.8,68.8
		c-9.5,9.3-14.7,21.7-14.7,35s5.2,25.6,14.7,34.9l69.8,68.8c1.4,1.4,4.2,1.5,5.8,0l50.1-49.5l50,49.4c1.7,1.7,4,1.7,5.8,0l69.8-68.8
		c9.5-9.3,14.7-21.7,14.7-35S556.1,271.9,546.6,262.6 M523.6,309.8l-49.7,49L444,329.2l11.7-11.6c19.2-21.1-5.4-39.5-5.4-39.5
		c-0.2,0-0.3-0.1-0.4-0.2L368,358.8l-49.7-49c-6.9-6.8-6.9-17.7,0-24.5l49.7-49l29.9,29.6l-11.7,11.6c-19.2,21.1,5.4,39.5,5.4,39.5
		c0.1,0,0.2,0.1,0.4,0.2l81.9-80.9l49.7,49C530.4,292,530.4,303,523.6,309.8"/>
</g>
</svg>
